<?xml version="1.0" encoding="iso-8859-1"?>
<!-- Generator: Adobe Illustrator 19.0.0, SVG Export Plug-In . SVG Version: 6.00 Build 0)  -->
<svg version="1.1" id="Capa_1" xmlns="http://www.w3.org/2000/svg" xmlns:xlink="http://www.w3.org/1999/xlink" x="0px" y="0px"
	 viewBox="0 0 512 512" style="enable-background:new 0 0 512 512;" xml:space="preserve">
<g>
	<g>
		<polygon points="291.017,225.927 283.947,266.024 344.093,266.024 351.163,225.927 		"/>
	</g>
</g>
<g>
	<g>
		<polygon points="200.799,225.927 193.729,266.024 253.874,266.024 260.944,225.927 		"/>
	</g>
</g>
<g>
	<g>
		<polygon points="278.644,296.097 271.574,336.194 331.72,336.194 338.79,296.097 		"/>
	</g>
</g>
<g>
	<g>
		<polygon points="188.426,296.097 181.356,336.194 241.501,336.194 248.572,296.097 		"/>
	</g>
</g>
<g>
	<g>
		<polygon points="98.208,296.097 91.138,336.194 151.283,336.194 158.353,296.097 		"/>
	</g>
</g>
<g>
	<g>
		<polygon points="176.053,366.267 168.983,406.364 229.128,406.364 236.199,366.267 		"/>
	</g>
</g>
<g>
	<g>
		<polygon points="85.835,366.267 78.765,406.364 138.91,406.364 145.98,366.267 		"/>
	</g>
</g>
<g>
	<g>
		<path d="M439.532,65.539h-73.299V35.466h-30.073v30.073H160.735V35.466h-30.073v30.073H72.469L0,476.534h512L439.532,65.539z
			 M97.703,95.612h32.959v30.073h30.073V95.612h175.424v30.073h30.073V95.612h42.761l-10.606,60.146H87.098L97.703,95.612z
			 M35.84,446.461L81.796,185.83h311.29L347.13,446.461H35.84z M426.914,167.169l49.247,279.293h-98.494L426.914,167.169z"/>
	</g>
</g>
<g>
</g>
<g>
</g>
<g>
</g>
<g>
</g>
<g>
</g>
<g>
</g>
<g>
</g>
<g>
</g>
<g>
</g>
<g>
</g>
<g>
</g>
<g>
</g>
<g>
</g>
<g>
</g>
<g>
</g>
</svg>
