<?xml version="1.0" encoding="iso-8859-1"?>
<!-- Generator: Adobe Illustrator 19.0.0, SVG Export Plug-In . SVG Version: 6.00 Build 0)  -->
<svg version="1.1" id="Capa_1" xmlns="http://www.w3.org/2000/svg" xmlns:xlink="http://www.w3.org/1999/xlink" x="0px" y="0px"
	 viewBox="0 0 512 512" style="enable-background:new 0 0 512 512;" xml:space="preserve">
<g>
	<g>
		<path d="M428.568,199.432l-21.213,21.213c9.444,9.444,14.645,22,14.645,35.355s-5.201,25.911-14.645,35.355l21.213,21.213
			C443.679,297.459,452,277.369,452,256C452,234.631,443.679,214.541,428.568,199.432z"/>
	</g>
</g>
<g>
	<g>
		<path d="M470.995,157.005l-21.213,21.213C470.558,198.994,482,226.618,482,256s-11.442,57.006-32.218,77.782l21.213,21.213
			C497.438,328.553,512,293.396,512,256S497.438,183.447,470.995,157.005z"/>
	</g>
</g>
<g>
	<g>
		<path d="M104.645,220.645l-21.213-21.213C68.321,214.541,60,234.631,60,256s8.321,41.459,23.432,56.568l21.213-21.213
			C95.201,281.911,90,269.355,90,256C90,242.645,95.201,230.089,104.645,220.645z"/>
	</g>
</g>
<g>
	<g>
		<path d="M62.218,178.218l-21.213-21.213C14.563,183.447,0,218.604,0,256s14.563,72.553,41.005,98.995l21.213-21.213
			C41.442,313.006,30,285.382,30,256C30,226.618,41.442,198.994,62.218,178.218z"/>
	</g>
</g>
<g>
	<g>
		<path d="M131,75v362h250V75H131z M351,407H161V105h190V407z"/>
	</g>
</g>
<g>
	<g>
		<path d="M256,135c-24.813,0-45,20.187-45,45s20.187,45,45,45s45-20.187,45-45S280.813,135,256,135z M256,195
			c-8.271,0-15-6.729-15-15s6.729-15,15-15s15,6.729,15,15S264.271,195,256,195z"/>
	</g>
</g>
<g>
	<g>
		<path d="M256,255c-33.084,0-60,26.916-60,60s26.916,60,60,60s60-26.916,60-60S289.084,255,256,255z M256,345
			c-16.542,0-30-13.458-30-30s13.458-30,30-30s30,13.458,30,30S272.542,345,256,345z"/>
	</g>
</g>
<g>
</g>
<g>
</g>
<g>
</g>
<g>
</g>
<g>
</g>
<g>
</g>
<g>
</g>
<g>
</g>
<g>
</g>
<g>
</g>
<g>
</g>
<g>
</g>
<g>
</g>
<g>
</g>
<g>
</g>
</svg>
