<?xml version="1.0" encoding="iso-8859-1"?>
<!-- Generator: Adobe Illustrator 19.0.0, SVG Export Plug-In . SVG Version: 6.00 Build 0)  -->
<svg version="1.1" id="Capa_1" xmlns="http://www.w3.org/2000/svg" xmlns:xlink="http://www.w3.org/1999/xlink" x="0px" y="0px"
	 viewBox="0 0 512 512" style="enable-background:new 0 0 512 512;" xml:space="preserve">
<g>
	<g>
		<path d="M163.055,150.577l258.912-90.846l-9.934-28.308L72.445,150.577H0v330h512v-330H163.055z M482,450.577H30v-270h452V450.577
			z"/>
	</g>
</g>
<g>
	<g>
		<path d="M165,210.577c-57.897,0-105,47.103-105,105c0,57.897,47.103,105,105,105c57.897,0,105-47.103,105-105
			C270,257.68,222.897,210.577,165,210.577z M165,390.577c-41.355,0-75-33.645-75-75c0-41.355,33.645-75,75-75s75,33.645,75,75
			C240,356.932,206.355,390.577,165,390.577z"/>
	</g>
</g>
<g>
	<g>
		<polygon points="422,260.577 422,230.577 392,230.577 392,260.577 300,260.577 300,290.577 452,290.577 452,260.577 		"/>
	</g>
</g>
<g>
	<g>
		<circle cx="341" cy="370.58" r="20"/>
	</g>
</g>
<g>
	<g>
		<circle cx="411" cy="370.58" r="20"/>
	</g>
</g>
<g>
</g>
<g>
</g>
<g>
</g>
<g>
</g>
<g>
</g>
<g>
</g>
<g>
</g>
<g>
</g>
<g>
</g>
<g>
</g>
<g>
</g>
<g>
</g>
<g>
</g>
<g>
</g>
<g>
</g>
</svg>
