<?xml version="1.0" encoding="iso-8859-1"?>
<!-- Generator: Adobe Illustrator 19.0.0, SVG Export Plug-In . SVG Version: 6.00 Build 0)  -->
<svg version="1.1" id="Capa_1" xmlns="http://www.w3.org/2000/svg" xmlns:xlink="http://www.w3.org/1999/xlink" x="0px" y="0px"
	 viewBox="0 0 512 512" style="enable-background:new 0 0 512 512;" xml:space="preserve">
<g>
	<g>
		<path d="M298.42,452c-4.527-12.764-14.656-22.893-27.42-27.42V342h110V0H131v342h110v82.58
			c-12.764,4.527-22.893,14.656-27.42,27.42H0v30h213.58c6.192,17.459,22.865,30,42.42,30s36.228-12.541,42.42-30H512v-30H298.42z
			 M161,312V30h190v282H161z M256,482c-8.271,0-15-6.729-15-15s6.729-15,15-15s15,6.729,15,15S264.271,482,256,482z"/>
	</g>
</g>
<g>
	<g>
		<circle cx="256" cy="232" r="20"/>
	</g>
</g>
<g>
	<g>
		<rect x="211" y="70" width="90" height="30"/>
	</g>
</g>
<g>
	<g>
		<rect x="211" y="130" width="90" height="30"/>
	</g>
</g>
<g>
</g>
<g>
</g>
<g>
</g>
<g>
</g>
<g>
</g>
<g>
</g>
<g>
</g>
<g>
</g>
<g>
</g>
<g>
</g>
<g>
</g>
<g>
</g>
<g>
</g>
<g>
</g>
<g>
</g>
</svg>
